<svg width="41" height="41" viewBox="0 0 41 41" fill="none" xmlns="http://www.w3.org/2000/svg">
<circle cx="20.178" cy="20.7905" r="20" fill="#FFED63"/>
<path d="M9.96453 31.0355H11.4052L25.91 16.5307L24.4693 15.09L9.96453 29.5948V31.0355ZM30.0682 15.1228L25.8772 10.9318L27.2524 9.55662C27.6235 9.18554 28.0819 9 28.6276 9C29.1733 9 29.6317 9.18554 30.0027 9.55662L31.4434 10.9973C31.8145 11.3683 32 11.8267 32 12.3724C32 12.9181 31.8145 13.3765 31.4434 13.7476L30.0682 15.1228ZM28.693 16.498L12.191 33H8V28.809L24.502 12.307L28.693 16.498ZM25.1896 15.8104L24.4693 15.09L25.91 16.5307L25.1896 15.8104Z" fill="#FF5C01"/>
</svg>
