<svg width="40" height="40" viewBox="0 0 40 40" fill="none" xmlns="http://www.w3.org/2000/svg">
<circle cx="20" cy="20" r="20" fill="#D9D9D9"/>
<path d="M9.78655 30.2449H11.2272L25.732 15.7402L24.2913 14.2995L9.78655 28.8043V30.2449ZM29.8902 14.3323L25.6992 10.1413L27.0744 8.76609C27.4455 8.39501 27.9039 8.20947 28.4496 8.20947C28.9953 8.20947 29.4537 8.39501 29.8248 8.76609L31.2654 10.2067C31.6365 10.5778 31.822 11.0362 31.822 11.5819C31.822 12.1276 31.6365 12.586 31.2654 12.9571L29.8902 14.3323ZM28.5151 15.7074L12.013 32.2095H7.82202V28.0185L24.3241 11.5164L28.5151 15.7074ZM25.0117 15.0198L24.2913 14.2995L25.732 15.7402L25.0117 15.0198Z" fill="#8D8D8D"/>
</svg>
