<svg width="24" height="24" viewBox="0 0 24 24" fill="none" xmlns="http://www.w3.org/2000/svg">
<path d="M12.2449 9.81836V14.4656H18.8349C18.5455 15.9602 17.6771 17.2257 16.3747 18.0766L20.3488 21.0984C22.6642 19.004 24 15.9276 24 12.273C24 11.4221 23.9221 10.6039 23.7774 9.81849L12.2449 9.81836Z" fill="#4285F4"/>
<path d="M5.3824 14.2842L4.48611 14.9566L1.31348 17.3783C3.32834 21.2947 7.45794 24.0002 12.2446 24.0002C15.5507 24.0002 18.3225 22.9311 20.3485 21.0984L16.3745 18.0765C15.2835 18.7965 13.892 19.2329 12.2446 19.2329C9.06091 19.2329 6.35595 17.1275 5.38741 14.2911L5.3824 14.2842Z" fill="#34A853"/>
<path d="M1.31346 6.62207C0.478619 8.23655 0 10.0584 0 12.0002C0 13.942 0.478619 15.7638 1.31346 17.3783C1.31346 17.3891 5.38779 14.2801 5.38779 14.2801C5.14289 13.5601 4.99813 12.7965 4.99813 12.0001C4.99813 11.2036 5.14289 10.44 5.38779 9.72L1.31346 6.62207Z" fill="#FBBC05"/>
<path d="M12.2448 4.77818C14.0482 4.77818 15.6512 5.38907 16.9314 6.56727L20.4378 3.13095C18.3117 1.18917 15.5511 0 12.2448 0C7.45819 0 3.32833 2.69454 1.31348 6.62183L5.38768 9.72002C6.35609 6.88362 9.06116 4.77818 12.2448 4.77818Z" fill="#EA4335"/>
</svg>
