<svg width="32" height="32" viewBox="0 0 32 32" fill="none" xmlns="http://www.w3.org/2000/svg">
<path d="M16.16 25.32C16.5867 25.32 16.9467 25.1733 17.24 24.88C17.5333 24.5867 17.68 24.2267 17.68 23.8C17.68 23.3733 17.5333 23.0133 17.24 22.72C16.9467 22.4267 16.5867 22.28 16.16 22.28C15.7333 22.28 15.3733 22.4267 15.08 22.72C14.7867 23.0133 14.64 23.3733 14.64 23.8C14.64 24.2267 14.7867 24.5867 15.08 24.88C15.3733 25.1733 15.7333 25.32 16.16 25.32ZM14.76 19.48H17.12C17.12 18.7867 17.2067 18.1533 17.38 17.58C17.5533 17.0067 18.0933 16.3467 19 15.6C19.8267 14.9067 20.4133 14.2267 20.76 13.56C21.1067 12.8933 21.28 12.16 21.28 11.36C21.28 9.94667 20.82 8.81333 19.9 7.96C18.98 7.10667 17.76 6.68 16.24 6.68C14.9333 6.68 13.78 7.00667 12.78 7.66C11.78 8.31333 11.0533 9.21333 10.6 10.36L12.72 11.16C13.0133 10.4133 13.4533 9.83333 14.04 9.42C14.6267 9.00667 15.32 8.8 16.12 8.8C17.0267 8.8 17.76 9.04667 18.32 9.54C18.88 10.0333 19.16 10.6667 19.16 11.44C19.16 12.0267 18.9867 12.58 18.64 13.1C18.2933 13.62 17.7867 14.16 17.12 14.72C16.32 15.4133 15.7267 16.1 15.34 16.78C14.9533 17.46 14.76 18.36 14.76 19.48ZM16 32C13.8133 32 11.7467 31.58 9.8 30.74C7.85333 29.9 6.15333 28.7533 4.7 27.3C3.24667 25.8467 2.1 24.1467 1.26 22.2C0.42 20.2533 0 18.1867 0 16C0 13.7867 0.42 11.7067 1.26 9.76C2.1 7.81333 3.24667 6.12 4.7 4.68C6.15333 3.24 7.85333 2.1 9.8 1.26C11.7467 0.42 13.8133 0 16 0C18.2133 0 20.2933 0.42 22.24 1.26C24.1867 2.1 25.88 3.24 27.32 4.68C28.76 6.12 29.9 7.81333 30.74 9.76C31.58 11.7067 32 13.7867 32 16C32 18.1867 31.58 20.2533 30.74 22.2C29.9 24.1467 28.76 25.8467 27.32 27.3C25.88 28.7533 24.1867 29.9 22.24 30.74C20.2933 31.58 18.2133 32 16 32ZM16 29.6C19.7867 29.6 23 28.2733 25.64 25.62C28.28 22.9667 29.6 19.76 29.6 16C29.6 12.2133 28.28 9 25.64 6.36C23 3.72 19.7867 2.4 16 2.4C12.24 2.4 9.03333 3.72 6.38 6.36C3.72667 9 2.4 12.2133 2.4 16C2.4 19.76 3.72667 22.9667 6.38 25.62C9.03333 28.2733 12.24 29.6 16 29.6Z" fill="#6F6F6F"/>
</svg>
