<svg width="33" height="24" viewBox="0 0 33 24" fill="none" xmlns="http://www.w3.org/2000/svg">
<path d="M19.5 8.475V6.675C20.325 6.325 21.1688 6.0625 22.0313 5.8875C22.8938 5.7125 23.8 5.625 24.75 5.625C25.4 5.625 26.0375 5.675 26.6625 5.775C27.2875 5.875 27.9 6 28.5 6.15V7.8C27.9 7.575 27.2938 7.40625 26.6813 7.29375C26.0688 7.18125 25.425 7.125 24.75 7.125C23.8 7.125 22.8875 7.24375 22.0125 7.48125C21.1375 7.71875 20.3 8.05 19.5 8.475ZM19.5 16.725V14.8875C20.325 14.55 21.1688 14.2969 22.0313 14.1281C22.8938 13.9594 23.8 13.875 24.75 13.875C25.4 13.875 26.0375 13.925 26.6625 14.025C27.2875 14.125 27.9 14.25 28.5 14.4V16.05C27.9 15.825 27.2938 15.6563 26.6813 15.5438C26.0688 15.4313 25.425 15.375 24.75 15.375C23.8 15.375 22.8875 15.4875 22.0125 15.7125C21.1375 15.9375 20.3 16.275 19.5 16.725ZM19.5 12.6V10.8C20.325 10.45 21.1688 10.1875 22.0313 10.0125C22.8938 9.8375 23.8 9.75 24.75 9.75C25.4 9.75 26.0375 9.8 26.6625 9.9C27.2875 10 27.9 10.125 28.5 10.275V11.925C27.9 11.7 27.2938 11.5313 26.6813 11.4188C26.0688 11.3063 25.425 11.25 24.75 11.25C23.8 11.25 22.8875 11.3688 22.0125 11.6063C21.1375 11.8438 20.3 12.175 19.5 12.6ZM17.7 20.625C18.95 20 20.175 19.5313 21.375 19.2188C22.575 18.9063 23.85 18.75 25.2 18.75C26.15 18.75 27.1313 18.825 28.1438 18.975C29.1563 19.125 30.025 19.325 30.75 19.575V3.4875C29.9 3.0625 29.0022 2.75 28.0567 2.55C27.1111 2.35 26.1589 2.25 25.2 2.25C23.85 2.25 22.5438 2.45625 21.2813 2.86875C20.0188 3.28125 18.825 3.8625 17.7 4.6125V20.625ZM16.575 24C15.3 23.05 13.9125 22.3188 12.4125 21.8063C10.9125 21.2938 9.375 21.0375 7.8 21.0375C6.88658 21.0375 5.98948 21.15 5.1087 21.375C4.2279 21.6 3.35 21.875 2.475 22.2C1.8975 22.475 1.34063 22.4375 0.804375 22.0875C0.268125 21.7375 0 21.2375 0 20.5875V3.225C0 2.85 0.0875 2.50625 0.2625 2.19375C0.4375 1.88125 0.7 1.6375 1.05 1.4625C2.1 0.9625 3.19375 0.59375 4.33125 0.35625C5.46875 0.11875 6.625 0 7.8 0C9.375 0 10.9063 0.2125 12.3938 0.6375C13.8813 1.0625 15.275 1.7125 16.575 2.5875C17.85 1.7125 19.2188 1.0625 20.6813 0.6375C22.1438 0.2125 23.65 0 25.2 0C26.3795 0 27.5306 0.11875 28.6533 0.35625C29.7761 0.59375 30.8625 0.9625 31.9125 1.4625C32.2625 1.6375 32.5313 1.88125 32.7188 2.19375C32.9063 2.50625 33 2.85 33 3.225V20.5875C33 21.2849 32.7188 21.8154 32.1563 22.1793C31.5938 22.5431 31.0375 22.55 30.4875 22.2C29.6375 21.85 28.7721 21.5688 27.8913 21.3563C27.0105 21.1438 26.1134 21.0375 25.2 21.0375C23.625 21.0375 22.1125 21.3 20.6625 21.825C19.2125 22.35 17.85 23.075 16.575 24Z" fill="#9A0000"/>
</svg>
