<svg width="40" height="40" viewBox="0 0 40 40" fill="none" xmlns="http://www.w3.org/2000/svg">
<path d="M14.1814 39.9544C12.8467 39.9544 11.6649 39.5211 10.6361 38.6545C9.60723 37.7879 8.88425 36.6705 8.46715 35.3022C8.02225 36.0927 7.48001 36.7085 6.84046 37.1494C6.2009 37.5903 5.43622 37.8107 4.5464 37.8107C3.23949 37.8107 2.15502 37.309 1.29301 36.3056C0.431005 35.3022 0 34.1163 0 32.748C0 31.2581 0.424053 30.0798 1.27216 29.2132C2.12026 28.3466 3.19778 27.8981 4.50469 27.8677C4.00417 27.2596 3.61488 26.5526 3.33681 25.7469C3.05874 24.9411 2.91971 24.1277 2.91971 23.3067C2.91971 22.1513 3.19082 21.0718 3.73306 20.0684C4.27529 19.065 5.04692 18.2592 6.04797 17.6511C6.187 18.0464 6.36079 18.4721 6.56934 18.9282C6.77789 19.3843 6.9934 19.7796 7.21585 20.114C6.65972 20.5093 6.22176 20.9958 5.90198 21.5735C5.5822 22.1513 5.42232 22.7594 5.42232 23.3979C5.42232 25.2223 6.09663 26.3702 7.44526 26.8415C8.79388 27.3128 10.0938 27.6853 11.3452 27.959L11.804 28.8255C11.4703 29.8898 11.1992 30.764 10.9906 31.4481C10.7821 32.1323 10.6778 32.7632 10.6778 33.3409C10.6778 34.3748 11.0323 35.2794 11.7414 36.0547C12.4505 36.8301 13.2777 37.2178 14.2231 37.2178C15.3632 37.2178 16.3017 36.6933 17.0386 35.6442C17.7755 34.5952 18.3733 33.3485 18.8321 31.9042C19.2909 30.4599 19.6455 29.0004 19.8957 27.5257C20.146 26.0509 20.3545 24.9031 20.5214 24.0821L22.9406 24.8119C22.6903 26.1193 22.3983 27.6397 22.0647 29.3729C21.731 31.106 21.2513 32.7556 20.6257 34.3215C20 35.8875 19.1797 37.2178 18.1648 38.3124C17.1498 39.4071 15.822 39.9544 14.1814 39.9544ZM17.1011 26.4082C15.8498 25.1919 14.7098 24.0593 13.6809 23.0103C12.6521 21.9612 11.7692 20.935 11.0323 19.9316C10.2954 18.9282 9.72541 17.9399 9.32221 16.9669C8.91901 15.9939 8.71741 14.9601 8.71741 13.8655C8.71741 12.041 9.30136 10.4903 10.4692 9.21323C11.6371 7.93615 13.0553 7.29761 14.7237 7.29761C14.9739 7.29761 15.2103 7.30521 15.4327 7.32041C15.6552 7.33561 15.8777 7.37362 16.1001 7.43444C15.8498 6.91752 15.6691 6.47662 15.5579 6.11174C15.4466 5.74686 15.391 5.38198 15.391 5.0171C15.391 3.6184 15.8359 2.43254 16.7258 1.45952C17.6156 0.486507 18.7 0 19.9791 0C21.2583 0 22.3427 0.486507 23.2325 1.45952C24.1224 2.43254 24.5673 3.6184 24.5673 5.0171C24.5673 5.35158 24.5186 5.70886 24.4213 6.08894C24.3239 6.46902 24.1363 6.91752 23.8582 7.43444C24.0806 7.37362 24.3031 7.33561 24.5255 7.32041C24.748 7.30521 24.9844 7.29761 25.2346 7.29761C26.8196 7.29761 28.1613 7.85253 29.2596 8.96237C30.358 10.0722 30.9906 11.4481 31.1575 13.0901C30.7682 13.0597 30.3511 13.0521 29.9062 13.0673C29.4612 13.0825 29.0441 13.1205 28.6548 13.1813C28.5158 12.2691 28.1404 11.5165 27.5287 10.9236C26.9169 10.3307 26.1522 10.0342 25.2346 10.0342C24.2058 10.0342 23.3924 10.3459 22.7946 10.9692C22.1967 11.5926 21.3973 12.5428 20.3962 13.8198H19.5203C18.4915 12.4819 17.6781 11.5165 17.0803 10.9236C16.4824 10.3307 15.6969 10.0342 14.7237 10.0342C13.7226 10.0342 12.8884 10.3991 12.2211 11.1288C11.5537 11.8586 11.22 12.7708 11.22 13.8655C11.22 14.5952 11.4008 15.3402 11.7623 16.1003C12.1237 16.8605 12.6382 17.6739 13.3055 18.5405C13.9729 19.4071 14.7793 20.3193 15.7247 21.2771C16.6701 22.2349 17.7268 23.2915 18.8947 24.447L17.1011 26.4082ZM25.7351 40C25.1234 40 24.5186 39.8936 23.9208 39.6807C23.3229 39.4679 22.7459 39.1486 22.1898 38.7229C22.4122 38.358 22.6347 37.9475 22.8571 37.4914C23.0796 37.0353 23.2603 36.6097 23.3994 36.2144C23.7887 36.5488 24.1849 36.7997 24.5881 36.9669C24.9913 37.1342 25.4015 37.2178 25.8186 37.2178C26.7918 37.2178 27.619 36.8301 28.3003 36.0547C28.9816 35.2794 29.3222 34.3748 29.3222 33.3409C29.3222 32.7328 29.211 32.0867 28.9885 31.4025C28.7661 30.7184 28.5019 29.8594 28.196 28.8255L28.6548 27.959C29.934 27.7157 31.2409 27.3584 32.5756 26.8871C33.9103 26.4158 34.5777 25.268 34.5777 23.4436C34.5777 22.1057 34.1328 21.1098 33.243 20.4561C32.3531 19.8024 31.366 19.4755 30.2815 19.4755C29.1137 19.4755 27.7303 19.7187 26.1314 20.2052C24.5325 20.6918 22.6764 21.3151 20.5631 22.0753L19.9374 19.4299C22.0507 18.6697 23.9555 18.0312 25.6517 17.5143C27.3479 16.9973 28.8912 16.7389 30.2815 16.7389C32.0612 16.7389 33.6392 17.3242 35.0156 18.4949C36.3921 19.6655 37.0803 21.2999 37.0803 23.3979C37.0803 24.2189 36.9413 25.0247 36.6632 25.8153C36.3851 26.6059 35.9958 27.3052 35.4953 27.9133C36.7744 27.9437 37.845 28.3998 38.707 29.2816C39.569 30.1634 40 31.3341 40 32.7936C40 34.1619 39.569 35.3478 38.707 36.3512C37.845 37.3546 36.7605 37.8563 35.4536 37.8563C34.5916 37.8563 33.8269 37.6359 33.1595 37.195C32.4922 36.7541 31.9499 36.1383 31.5328 35.3478C31.0879 36.7161 30.3511 37.8335 29.3222 38.7001C28.2934 39.5667 27.0977 40 25.7351 40Z" fill="black"/>
</svg>
