<svg width="26" height="24" viewBox="0 0 26 24" fill="none" xmlns="http://www.w3.org/2000/svg">
<path d="M13 24L11.6675 22.7885C9.37586 20.6686 7.48128 18.8398 5.98377 17.3022C4.48626 15.7647 3.29333 14.3902 2.405 13.1787C1.51667 11.9673 0.89375 10.8704 0.53625 9.88813C0.17875 8.90587 0 7.91269 0 6.90859C0 4.94068 0.655417 3.29728 1.96625 1.97838C3.27708 0.659459 4.89667 0 6.825 0C8.06 0 9.20292 0.294679 10.2537 0.884038C11.3046 1.4734 12.22 2.32469 13 3.43793C13.91 2.25921 14.8742 1.39154 15.8925 0.834925C16.9108 0.278308 18.005 0 19.175 0C21.1033 0 22.7229 0.659459 24.0337 1.97838C25.3446 3.29728 26 4.94068 26 6.90859C26 7.91269 25.8212 8.90587 25.4637 9.88813C25.1062 10.8704 24.4833 11.9673 23.595 13.1787C22.7067 14.3902 21.5137 15.7647 20.0162 17.3022C18.5187 18.8398 16.6241 20.6686 14.3325 22.7885L13 24ZM13 21.4134C15.1934 19.3835 16.9985 17.6427 18.4151 16.1911C19.8317 14.7394 20.9571 13.4679 21.7912 12.3765C22.6254 11.2851 23.2104 10.3123 23.5462 9.45806C23.8821 8.6038 24.05 7.75556 24.05 6.91334C24.05 5.46952 23.595 4.28377 22.685 3.35607C21.775 2.42838 20.6074 1.96453 19.1823 1.96453C18.066 1.96453 17.0327 2.30832 16.0826 2.99591C15.1325 3.68349 14.365 4.64939 13.78 5.89359H12.1875C11.6242 4.67121 10.8675 3.71078 9.91737 3.01228C8.96727 2.31378 7.93404 1.96453 6.81769 1.96453C5.39256 1.96453 4.225 2.42838 3.315 3.35607C2.405 4.28377 1.95 5.47139 1.95 6.91894C1.95 7.76334 2.11792 8.61664 2.45375 9.47885C2.78958 10.3411 3.37458 11.3233 4.20875 12.4256C5.04292 13.528 6.175 14.7995 7.605 16.2401C9.035 17.6808 10.8333 19.4052 13 21.4134Z" fill="#686868"/>
</svg>
