<svg width="26" height="24" viewBox="0 0 26 24" fill="none" xmlns="http://www.w3.org/2000/svg">
<path d="M13 24L11.6675 22.7885C9.37083 20.6712 7.475 18.8431 5.98 17.3042C4.485 15.7653 3.29333 14.3902 2.405 13.1787C1.51667 11.9673 0.89375 10.8704 0.53625 9.88813C0.17875 8.90587 0 7.91269 0 6.9086C0 4.94407 0.655417 3.3015 1.96625 1.9809C3.27708 0.6603 4.89667 0 6.825 0C8.06 0 9.20292 0.294679 10.2537 0.884038C11.3046 1.4734 12.22 2.32469 13 3.43793C13.91 2.25921 14.8742 1.39154 15.8925 0.834925C16.9108 0.278308 18.005 0 19.175 0C21.1033 0 22.7229 0.6603 24.0337 1.9809C25.3446 3.3015 26 4.94407 26 6.9086C26 7.91269 25.8212 8.90587 25.4637 9.88813C25.1062 10.8704 24.4833 11.9673 23.595 13.1787C22.7067 14.3902 21.515 15.7653 20.02 17.3042C18.525 18.8431 16.6292 20.6712 14.3325 22.7885L13 24Z" fill="#FF8230"/>
</svg>
