<svg width="102" height="44" viewBox="0 0 102 44" fill="none" xmlns="http://www.w3.org/2000/svg">
<path d="M8.26754 15.96L8.30715 20.56L14.2489 20.2C14.2489 16.04 14.315 11.6267 14.447 6.95996L19.6757 7.43996C19.438 11.68 19.3192 16.28 19.3192 21.24C19.3192 26.1733 19.4645 31.1333 19.7549 36.12L14.6846 35.68C14.447 33.3867 14.3017 29.7067 14.2489 24.64L8.42598 25C8.50521 28.7867 8.62404 32.64 8.78249 36.56L3.3953 36.08C3.10482 30.4533 2.95957 25.28 2.95957 20.56C2.95957 15.84 3.06521 11.76 3.27647 8.31996L8.50521 8.79996C8.34676 11.1733 8.26754 13.56 8.26754 15.96ZM35.6417 35.6L34.7306 30.04L28.8285 30.28L27.3232 37.8L21.7776 37.32L28.8681 8.31996L36.1962 8.95996L41.3854 36.08L35.6417 35.6ZM32.1558 13.56L29.6603 26L34.0968 25.84L32.1558 13.56Z" fill="black"/>
<path d="M58.76 8.4799V13.3999C55.8023 13.3999 53.0295 13.4932 50.4416 13.6799C50.3888 14.4532 50.3359 15.8266 50.2831 17.7999C50.2567 19.7466 50.2303 20.9466 50.2039 21.3999C53.1616 20.9999 55.5383 20.7999 57.334 20.7999L58.1262 25.1999C55.1685 25.2799 52.5146 25.4666 50.1643 25.7599C50.1643 29.9199 50.2171 33.5866 50.3227 36.7599L44.9752 36.1599C44.9224 31.8399 44.8959 27.8266 44.8959 24.1199C44.8959 20.4132 45.1072 15.5466 45.5297 9.5199C50.0455 8.82657 54.4555 8.4799 58.76 8.4799ZM66.3605 26.5999C66.3605 27.9866 66.6642 29.2266 67.2716 30.3199C67.8789 31.4132 68.5919 31.9599 69.4106 31.9599C70.2556 31.9599 70.929 31.5866 71.4308 30.8399C71.9326 30.0932 72.2891 29.1066 72.5003 27.8799C72.87 25.7199 73.0549 23.2266 73.0549 20.3999C73.0549 17.5466 72.8833 13.3732 72.5399 7.8799L77.9271 8.4399C78.2968 13.9332 78.4817 17.6666 78.4817 19.6399C78.4817 21.6132 78.4552 22.9999 78.4024 23.7999C78.3497 24.5732 78.244 25.4799 78.0856 26.5199C77.9271 27.5599 77.7159 28.5332 77.4518 29.4399C77.1877 30.3466 76.8312 31.2532 76.3823 32.1599C75.9334 33.0666 75.4051 33.8399 74.7978 34.4799C73.451 35.9466 71.6157 36.6799 69.2918 36.6799C66.9943 36.6799 65.0269 35.6399 63.3896 33.5599C61.7524 31.4799 60.9337 29.1599 60.9337 26.5999C60.9337 20.9732 61.2374 14.9732 61.8448 8.5999L67.232 9.1199C66.651 14.9599 66.3605 20.7866 66.3605 26.5999ZM99.9541 7.8399L99.9937 26.4399C99.9937 29.5066 99.8877 32.7999 99.6768 36.3199L95.2399 35.8799C91.8333 28.0666 89.0473 22.2132 86.8818 18.3199C86.9083 22.2666 86.9214 28.5599 86.9214 37.1999L82.2869 36.6799C82.2076 35.0266 82.168 33.4266 82.168 31.8799C82.168 25.4266 82.5245 17.9066 83.2375 9.3199L88.5059 9.8399C91.1203 17.1199 93.4705 22.6532 95.5568 26.4399C95.3983 18.3866 95.2134 12.0399 95.0022 7.3999L99.9541 7.8399Z" fill="#FF5C01"/>
<path d="M64.3689 6.4165C66.0097 6.4165 67.3398 5.18529 67.3398 3.6665C67.3398 2.14772 66.0097 0.916504 64.3689 0.916504C62.7282 0.916504 61.3981 2.14772 61.3981 3.6665C61.3981 5.18529 62.7282 6.4165 64.3689 6.4165Z" fill="#9A0000"/>
<path d="M75.2621 6.4165C76.9029 6.4165 78.233 5.18529 78.233 3.6665C78.233 2.14772 76.9029 0.916504 75.2621 0.916504C73.6214 0.916504 72.2913 2.14772 72.2913 3.6665C72.2913 5.18529 73.6214 6.4165 75.2621 6.4165Z" fill="#9A0000"/>
</svg>
