<svg width="4" height="32" viewBox="0 0 4 32" fill="none" xmlns="http://www.w3.org/2000/svg">
<path d="M1.99408 32C1.44247 32 0.972222 31.7643 0.583333 31.2929C0.194444 30.8215 0 30.2549 0 29.5929C0 28.931 0.196417 28.3667 0.58925 27.9C0.982055 27.4333 1.45428 27.2 2.00592 27.2C2.55753 27.2 3.02778 27.4357 3.41667 27.9071C3.80556 28.3785 4 28.9451 4 29.6071C4 30.269 3.80358 30.8333 3.41075 31.3C3.01794 31.7667 2.54572 32 1.99408 32ZM1.99408 18.4C1.44247 18.4 0.972222 18.1643 0.583333 17.6929C0.194444 17.2215 0 16.6549 0 15.9929C0 15.331 0.196417 14.7667 0.58925 14.3C0.982055 13.8333 1.45428 13.6 2.00592 13.6C2.55753 13.6 3.02778 13.8357 3.41667 14.3071C3.80556 14.7785 4 15.3451 4 16.0071C4 16.669 3.80358 17.2333 3.41075 17.7C3.01794 18.1667 2.54572 18.4 1.99408 18.4ZM1.99408 4.8C1.44247 4.8 0.972222 4.5643 0.583333 4.0929C0.194444 3.62153 0 3.05487 0 2.3929C0 1.73097 0.196417 1.16667 0.58925 0.7C0.982055 0.233333 1.45428 0 2.00592 0C2.55753 0 3.02778 0.235701 3.41667 0.707101C3.80556 1.17847 4 1.74513 4 2.4071C4 3.06903 3.80358 3.63333 3.41075 4.1C3.01794 4.56667 2.54572 4.8 1.99408 4.8Z" fill="#686868"/>
</svg>
