<svg width="103" height="48" viewBox="0 0 103 48" fill="none" xmlns="http://www.w3.org/2000/svg">
<path d="M9.44234 15.96L9.48234 20.56L15.4823 20.2C15.4823 16.04 15.549 11.6267 15.6823 6.96L20.9623 7.44C20.7223 11.68 20.6023 16.28 20.6023 21.24C20.6023 26.1733 20.749 31.1333 21.0423 36.12L15.9223 35.68C15.6823 33.3867 15.5357 29.7067 15.4823 24.64L9.60234 25C9.68234 28.7867 9.80234 32.64 9.96234 36.56L4.52234 36.08C4.22901 30.4533 4.08234 25.28 4.08234 20.56C4.08234 15.84 4.18901 11.76 4.40234 8.32L9.68234 8.8C9.52234 11.1733 9.44234 13.56 9.44234 15.96ZM37.0848 35.6L36.1648 30.04L30.2048 30.28L28.6848 37.8L23.0848 37.32L30.2448 8.32L37.6448 8.96L42.8848 36.08L37.0848 35.6ZM33.5648 13.56L31.0448 26L35.5248 25.84L33.5648 13.56ZM60.4298 8.48V13.4C57.4432 13.4 54.6432 13.4933 52.0298 13.68C51.9765 14.4533 51.9232 15.8267 51.8698 17.8C51.8432 19.7467 51.8165 20.9467 51.7898 21.4C54.7765 21 57.1765 20.8 58.9898 20.8L59.7898 25.2C56.8032 25.28 54.1232 25.4667 51.7498 25.76C51.7498 29.92 51.8032 33.5867 51.9098 36.76L46.5098 36.16C46.4565 31.84 46.4298 27.8267 46.4298 24.12C46.4298 20.4133 46.6432 15.5467 47.0698 9.52C51.6298 8.82667 56.0832 8.48 60.4298 8.48ZM99.8398 7.84L99.8798 26.44C99.8798 29.5067 99.7732 32.8 99.5598 36.32L95.0798 35.88C91.6398 28.0667 88.8265 22.2133 86.6398 18.32C86.6665 22.2667 86.6798 28.56 86.6798 37.2L81.9998 36.68C81.9198 35.0267 81.8798 33.4267 81.8798 31.88C81.8798 25.4267 82.2398 17.9067 82.9598 9.32L88.2798 9.84C90.9198 17.12 93.2932 22.6533 95.3998 26.44C95.2398 18.3867 95.0532 12.04 94.8398 7.4L99.8398 7.84Z" fill="black"/>
<path d="M74.1412 19.4C74.1412 18.0133 73.8346 16.7733 73.2212 15.68C72.6079 14.5867 71.8879 14.04 71.0612 14.04C70.2079 14.04 69.5279 14.4133 69.0212 15.16C68.5146 15.9067 68.1546 16.8933 67.9412 18.12C67.5679 20.28 67.3812 22.7733 67.3812 25.6C67.3812 28.4533 67.5546 32.6267 67.9012 38.12L62.4612 37.56C62.0879 32.0667 61.9012 28.3333 61.9012 26.36C61.9012 24.3867 61.9279 23 61.9812 22.2C62.0346 21.4267 62.1412 20.52 62.3012 19.48C62.4612 18.44 62.6746 17.4667 62.9412 16.56C63.2079 15.6533 63.5679 14.7467 64.0212 13.84C64.4746 12.9333 65.0079 12.16 65.6212 11.52C66.9812 10.0533 68.8346 9.32 71.1812 9.32C73.5012 9.32 75.4879 10.36 77.1412 12.44C78.7946 14.52 79.6212 16.84 79.6212 19.4C79.6212 25.0267 79.3146 31.0267 78.7012 37.4L73.2612 36.88C73.8479 31.04 74.1412 25.2133 74.1412 19.4Z" fill="#9A0000"/>
<path d="M68 3.66675C68 5.18553 66.6569 6.41675 65 6.41675C63.3431 6.41675 62 5.18553 62 3.66675C62 2.14796 63.3431 0.916748 65 0.916748C66.6569 0.916748 68 2.14796 68 3.66675Z" fill="#9A0000"/>
<ellipse cx="76" cy="3.66675" rx="3" ry="2.75" fill="#9A0000"/>
</svg>
