<svg width="40" height="40" viewBox="0 0 40 40" fill="none" xmlns="http://www.w3.org/2000/svg">
<path d="M20 19.3237C17.25 19.3237 15 18.4219 13.25 16.6184C11.5 14.8148 10.625 12.496 10.625 9.66184C10.625 6.8277 11.5 4.50886 13.25 2.70531C15 0.901771 17.25 0 20 0C22.75 0 25 0.901771 26.75 2.70531C28.5 4.50886 29.375 6.8277 29.375 9.66184C29.375 12.496 28.5 14.8148 26.75 16.6184C25 18.4219 22.75 19.3237 20 19.3237ZM0 40V33.9452C0 32.3135 0.395833 30.9179 1.1875 29.7585C1.97917 28.599 3 27.7187 4.25 27.1176C7.04167 25.8293 9.71875 24.8631 12.2812 24.219C14.8438 23.5749 17.4167 23.2528 20 23.2528C22.5833 23.2528 25.1458 23.5856 27.6875 24.2512C30.2292 24.9168 32.8958 25.8722 35.6875 27.1176C36.9792 27.7187 38.0208 28.599 38.8125 29.7585C39.6042 30.9179 40 32.3135 40 33.9452V40H0Z" fill="black"/>
</svg>
