<svg width="40" height="40" viewBox="0 0 40 40" fill="none" xmlns="http://www.w3.org/2000/svg">
<path d="M0 40V37.2696H40V40H0ZM4 34.5392V24.9829C2.7 22.2222 1.8 19.9848 1.3 18.2708C0.8 16.5567 0.55 14.835 0.55 13.1058C0.55 11.3462 0.791667 9.49564 1.275 7.55404C1.75833 5.61244 2.43333 3.77702 3.3 2.04778C3.63333 1.38036 4.075 0.872203 4.625 0.523322C5.175 0.174441 5.78333 0 6.45 0C7.35 0 8.03333 0.265453 8.5 0.79636C8.96667 1.32727 9.2 2.12363 9.2 3.18544V9.14676C9.2 10.4816 9.48333 11.7406 10.05 12.9238C10.6167 14.1069 11.3917 15.1384 12.375 16.0182C13.3583 16.898 14.5 17.5882 15.8 18.0887C17.1 18.5893 18.5 18.8396 20 18.8396C22.7 18.8396 25.05 19.0216 27.05 19.3857C29.05 19.7497 30.7167 20.2806 32.05 20.9784C33.3833 21.6761 34.375 22.5635 35.025 23.6405C35.675 24.7175 36 25.9841 36 27.4403V34.5392H15.5V32.8555C15.5 31.7027 15.9333 30.7091 16.8 29.8749C17.6667 29.0406 18.7333 28.6234 20 28.6234H27.5V25.8931H20C17.9 25.8931 16.125 26.5757 14.675 27.9408C13.225 29.306 12.5 30.9443 12.5 32.8555V34.5392H4ZM20 16.3367C17.8 16.3367 15.9167 15.6238 14.35 14.198C12.7833 12.7721 12 11.058 12 9.05575C12 7.05347 12.7833 5.3394 14.35 3.91354C15.9167 2.48768 17.8 1.77474 20 1.77474C22.2 1.77474 24.0833 2.48768 25.65 3.91354C27.2167 5.3394 28 7.05347 28 9.05575C28 11.058 27.2167 12.7721 25.65 14.198C24.0833 15.6238 22.2 16.3367 20 16.3367Z" fill="black"/>
</svg>
