<svg width="50" height="40" viewBox="0 0 50 40" fill="none" xmlns="http://www.w3.org/2000/svg">
<path d="M3.75 40C2.75 40 1.875 39.6146 1.125 38.8438C0.375 38.0729 0 37.2083 0 36.25V3.75C0 2.79167 0.375 1.92708 1.125 1.15625C1.875 0.385417 2.75 0 3.75 0H21.3125L25.0625 3.75H46.25C47.2083 3.75 48.0729 4.13542 48.8438 4.90625C49.6146 5.67708 50 6.54167 50 7.5V36.25C50 37.2083 49.6146 38.0729 48.8438 38.8438C48.0729 39.6146 47.2083 40 46.25 40H3.75ZM10.625 18.75H39.375V15H10.625V18.75ZM10.625 28.75H29.375V25H10.625V28.75Z" fill="black"/>
</svg>
