<svg width="35" height="32" viewBox="0 0 35 32" fill="none" xmlns="http://www.w3.org/2000/svg">
<path d="M17.5047 25.0667C19.3841 25.0667 20.9801 24.1846 22.2926 22.4204C23.6051 20.6562 24.2614 18.514 24.2614 15.9937C24.2614 13.4735 23.6035 11.3333 22.2879 9.57333C20.9723 7.81333 19.3748 6.93333 17.4953 6.93333C15.6159 6.93333 14.0199 7.81543 12.7074 9.57963C11.3949 11.3438 10.7386 13.486 10.7386 16.0063C10.7386 18.5265 11.3965 20.6667 12.7121 22.4267C14.0277 24.1867 15.6252 25.0667 17.5047 25.0667ZM17.4907 21.9733C16.2507 21.9733 15.1998 21.3914 14.3381 20.2275C13.4763 19.0635 13.0455 17.6502 13.0455 15.9875C13.0455 14.3247 13.4794 12.9156 14.3474 11.76C15.2154 10.6044 16.2694 10.0267 17.5093 10.0267C18.7493 10.0267 19.8002 10.6086 20.6619 11.7725C21.5237 12.9365 21.9545 14.3498 21.9545 16.0125C21.9545 17.6753 21.5206 19.0844 20.6526 20.24C19.7846 21.3956 18.7306 21.9733 17.4907 21.9733ZM17.5 32C13.6288 32 10.1288 30.5244 7 27.5733C3.87121 24.6222 1.53788 20.7644 0 16C1.53788 11.2356 3.87121 7.37778 7 4.42667C10.1288 1.47556 13.6288 0 17.5 0C21.3712 0 24.8712 1.47556 28 4.42667C31.1288 7.37778 33.4621 11.2356 35 16C33.4621 20.7644 31.1288 24.6222 28 27.5733C24.8712 30.5244 21.3712 32 17.5 32ZM17.4933 28.8C20.7061 28.8 23.6581 27.6356 26.3494 25.3067C29.0407 22.9778 31.089 19.8756 32.4943 16C31.089 12.1244 29.043 9.02222 26.3562 6.69333C23.6693 4.36444 20.7195 3.2 17.5067 3.2C14.2939 3.2 11.3419 4.36444 8.65057 6.69333C5.95928 9.02222 3.89773 12.1244 2.46591 16C3.89773 19.8756 5.95704 22.9778 8.64385 25.3067C11.3307 27.6356 14.2805 28.8 17.4933 28.8Z" fill="#6F6F6F"/>
</svg>
