<svg width="35" height="32" viewBox="0 0 35 32" fill="none" xmlns="http://www.w3.org/2000/svg">
<path d="M23.4261 17.8177L21.6761 16.0599C22.3655 14.169 22.0076 12.5976 20.6023 11.3458C19.197 10.094 17.6723 9.77445 16.0284 10.387L14.2784 8.62921C14.7292 8.33625 15.233 8.12318 15.7898 7.99001C16.3466 7.85685 16.9167 7.79026 17.5 7.79026C19.3826 7.79026 20.9801 8.44944 22.2926 9.76779C23.6051 11.0861 24.2614 12.6908 24.2614 14.5818C24.2614 15.1677 24.1884 15.747 24.0426 16.3196C23.8968 16.8922 23.6913 17.3916 23.4261 17.8177ZM28.5568 22.9713L26.9659 21.3733C28.2652 20.4145 29.3987 19.3425 30.3665 18.1573C31.3343 16.9721 32.0436 15.7803 32.4943 14.5818C31.1686 11.6255 29.1799 9.28839 26.5284 7.57054C23.8769 5.85268 21 4.99376 17.8977 4.99376C16.7841 4.99376 15.6439 5.10029 14.4773 5.31336C13.3106 5.52643 12.3958 5.77944 11.733 6.07241L9.90341 4.19476C10.8314 3.76862 12.018 3.39576 13.4631 3.07615C14.9081 2.75655 16.3201 2.59675 17.6989 2.59675C21.4905 2.59675 24.9574 3.68206 28.0994 5.85268C31.2415 8.0233 33.5417 10.933 35 14.5818C34.3106 16.2863 33.4223 17.8444 32.3352 19.2559C31.2481 20.6675 29.9886 21.9059 28.5568 22.9713ZM30.8636 32L24.1818 25.4082C23.2538 25.7811 22.2064 26.0674 21.0398 26.2672C19.8731 26.4669 18.6932 26.5668 17.5 26.5668C13.6288 26.5668 10.1155 25.4815 6.96023 23.3109C3.80492 21.1402 1.48485 18.2305 0 14.5818C0.530303 13.1968 1.2661 11.8452 2.20739 10.5268C3.14867 9.20849 4.29545 7.95006 5.64773 6.75156L0.636364 1.71785L2.30682 0L32.4148 30.2422L30.8636 32ZM7.27841 8.42946C6.29735 9.14856 5.34943 10.094 4.43466 11.2659C3.51989 12.4378 2.86364 13.5431 2.46591 14.5818C3.81818 17.5381 5.85322 19.8752 8.57102 21.593C11.2888 23.3109 14.3712 24.1698 17.8182 24.1698C18.6932 24.1698 19.5549 24.1165 20.4034 24.01C21.2519 23.9035 21.8883 23.7437 22.3125 23.5306L19.767 20.9738C19.4754 21.1069 19.1174 21.2068 18.6932 21.2734C18.2689 21.34 17.8712 21.3733 17.5 21.3733C15.6439 21.3733 14.053 20.7208 12.7273 19.4157C11.4015 18.1107 10.7386 16.4994 10.7386 14.5818C10.7386 14.1823 10.7718 13.7828 10.8381 13.3833C10.9044 12.9838 11.0038 12.6242 11.1364 12.3046L7.27841 8.42946Z" fill="#6F6F6F"/>
</svg>
