<svg width="32" height="32" viewBox="0 0 32 32" fill="none" xmlns="http://www.w3.org/2000/svg">
<path d="M15.9993 24C16.3731 24 16.6867 23.8736 16.94 23.6207C17.1933 23.3678 17.32 23.0545 17.32 22.6807C17.32 22.3069 17.1936 21.9933 16.9407 21.74C16.6878 21.4867 16.3745 21.36 16.0007 21.36C15.6269 21.36 15.3133 21.4864 15.06 21.7393C14.8067 21.9922 14.68 22.3055 14.68 22.6793C14.68 23.0531 14.8064 23.3667 15.0593 23.62C15.3122 23.8733 15.6255 24 15.9993 24ZM14.92 17.88H17.32V7.76H14.92V17.88ZM16.0106 32C13.8044 32 11.7311 31.58 9.79064 30.74C7.85021 29.9 6.15333 28.7533 4.7 27.3C3.24667 25.8467 2.1 24.1488 1.26 22.2064C0.42 20.264 0 18.1885 0 15.98C0 13.7715 0.42 11.696 1.26 9.75364C2.1 7.81121 3.24667 6.12 4.7 4.68C6.15333 3.24 7.85121 2.1 9.79364 1.26C11.736 0.42 13.8115 0 16.02 0C18.2285 0 20.304 0.42 22.2464 1.26C24.1888 2.1 25.88 3.24 27.32 4.68C28.76 6.12 29.9 7.81333 30.74 9.76C31.58 11.7067 32 13.7831 32 15.9894C32 18.1956 31.58 20.2689 30.74 22.2094C29.9 24.1498 28.76 25.8442 27.32 27.2926C25.88 28.7411 24.1867 29.8877 22.24 30.7326C20.2933 31.5775 18.2169 32 16.0106 32ZM16.02 29.6C19.7933 29.6 23 28.2733 25.64 25.62C28.28 22.9667 29.6 19.7533 29.6 15.98C29.6 12.2067 28.2825 9 25.6475 6.36C23.0125 3.72 19.7967 2.4 16 2.4C12.24 2.4 9.03333 3.71749 6.38 6.35248C3.72667 8.98749 2.4 12.2033 2.4 16C2.4 19.76 3.72667 22.9667 6.38 25.62C9.03333 28.2733 12.2467 29.6 16.02 29.6Z" fill="#D41B1B"/>
</svg>
