<svg width="24" height="24" viewBox="0 0 24 24" fill="none" xmlns="http://www.w3.org/2000/svg">
<path d="M8.50886 23.9726C7.70803 23.9726 6.99896 23.7127 6.38165 23.1927C5.76434 22.6727 5.33055 22.0023 5.08029 21.1813C4.81335 21.6556 4.48801 22.0251 4.10428 22.2896C3.72054 22.5542 3.26173 22.6864 2.72784 22.6864C1.94369 22.6864 1.29301 22.3854 0.775808 21.7834C0.258603 21.1813 0 20.4698 0 19.6488C0 18.7548 0.254432 18.0479 0.763295 17.5279C1.27216 17.008 1.91867 16.7389 2.70282 16.7206C2.4025 16.3558 2.16893 15.9316 2.00209 15.4481C1.83524 14.9647 1.75182 14.4766 1.75182 13.984C1.75182 13.2908 1.91449 12.6431 2.23983 12.041C2.56517 11.439 3.02815 10.9555 3.62878 10.5906C3.7122 10.8278 3.81648 11.0832 3.94161 11.3569C4.06674 11.6306 4.19604 11.8677 4.32951 12.0684C3.99583 12.3056 3.73306 12.5975 3.54119 12.9441C3.34932 13.2908 3.25339 13.6556 3.25339 14.0388C3.25339 15.1334 3.65798 15.8221 4.46715 16.1049C5.27633 16.3877 6.05631 16.6112 6.80709 16.7754L7.08238 17.2953C6.88217 17.9339 6.7195 18.4584 6.59437 18.8689C6.46924 19.2794 6.40667 19.6579 6.40667 20.0046C6.40667 20.6249 6.6194 21.1676 7.04484 21.6328C7.47028 22.0981 7.96663 22.3307 8.53389 22.3307C9.21794 22.3307 9.78102 22.016 10.2231 21.3865C10.6653 20.7571 11.024 20.0091 11.2993 19.1425C11.5746 18.2759 11.7873 17.4002 11.9374 16.5154C12.0876 15.6306 12.2127 14.9418 12.3128 14.4493L13.7643 14.8871C13.6142 15.6716 13.439 16.5838 13.2388 17.6237C13.0386 18.6636 12.7508 19.6534 12.3754 20.5929C12 21.5325 11.5078 22.3307 10.8989 22.9875C10.2899 23.6442 9.49322 23.9726 8.50886 23.9726ZM10.2607 15.8449C9.50991 15.1152 8.82586 14.4356 8.20855 13.8062C7.59124 13.1767 7.06152 12.561 6.6194 11.959C6.17727 11.3569 5.83524 10.764 5.59333 10.1802C5.35141 9.59635 5.23045 8.97605 5.23045 8.31927C5.23045 7.22463 5.58081 6.29418 6.28154 5.52794C6.98227 4.76169 7.83316 4.37856 8.8342 4.37856C8.98436 4.37856 9.12617 4.38312 9.25965 4.39225C9.39312 4.40137 9.52659 4.42417 9.66006 4.46066C9.50991 4.15051 9.40146 3.88597 9.33472 3.66705C9.26799 3.44812 9.23462 3.22919 9.23462 3.01026C9.23462 2.17104 9.50156 1.45952 10.0355 0.875713C10.5693 0.291904 11.22 0 11.9875 0C12.755 0 13.4056 0.291904 13.9395 0.875713C14.4734 1.45952 14.7404 2.17104 14.7404 3.01026C14.7404 3.21095 14.7112 3.42531 14.6528 3.65336C14.5944 3.88141 14.4818 4.15051 14.3149 4.46066C14.4484 4.42417 14.5819 4.40137 14.7153 4.39225C14.8488 4.38312 14.9906 4.37856 15.1408 4.37856C16.0918 4.37856 16.8968 4.71152 17.5558 5.37742C18.2148 6.04333 18.5944 6.86887 18.6945 7.85405C18.4609 7.8358 18.2106 7.83124 17.9437 7.84036C17.6767 7.84949 17.4265 7.87229 17.1929 7.90878C17.1095 7.36146 16.8843 6.90992 16.5172 6.55416C16.1502 6.1984 15.6913 6.02052 15.1408 6.02052C14.5235 6.02052 14.0355 6.20753 13.6767 6.58153C13.318 6.95553 12.8384 7.52566 12.2377 8.2919H11.7122C11.0949 7.48917 10.6069 6.90992 10.2482 6.55416C9.88947 6.1984 9.41814 6.02052 8.8342 6.02052C8.23358 6.02052 7.73306 6.23945 7.33264 6.67731C6.93222 7.11517 6.73201 7.66249 6.73201 8.31927C6.73201 8.75713 6.84046 9.2041 7.05735 9.6602C7.27424 10.1163 7.5829 10.6043 7.98332 11.1243C8.38373 11.6442 8.86757 12.1916 9.43483 12.7662C10.0021 13.3409 10.6361 13.9749 11.3368 14.6682L10.2607 15.8449ZM15.4411 24C15.074 24 14.7112 23.9361 14.3525 23.8084C13.9937 23.6807 13.6475 23.4892 13.3139 23.2338C13.4473 23.0148 13.5808 22.7685 13.7143 22.4949C13.8478 22.2212 13.9562 21.9658 14.0396 21.7286C14.2732 21.9293 14.5109 22.0798 14.7529 22.1802C14.9948 22.2805 15.2409 22.3307 15.4911 22.3307C16.0751 22.3307 16.5714 22.0981 16.9802 21.6328C17.3889 21.1676 17.5933 20.6249 17.5933 20.0046C17.5933 19.6397 17.5266 19.252 17.3931 18.8415C17.2596 18.431 17.1011 17.9156 16.9176 17.2953L17.1929 16.7754C17.9604 16.6294 18.7445 16.4151 19.5454 16.1323C20.3462 15.8495 20.7466 15.1608 20.7466 14.0661C20.7466 13.2634 20.4797 12.6659 19.9458 12.2737C19.4119 11.8814 18.8196 11.6853 18.1689 11.6853C17.4682 11.6853 16.6382 11.8312 15.6788 12.1231C14.7195 12.4151 13.6058 12.7891 12.3379 13.2452L11.9625 11.6579C13.2304 11.2018 14.3733 10.8187 15.391 10.5086C16.4088 10.1984 17.3347 10.0433 18.1689 10.0433C19.2367 10.0433 20.1835 10.3945 21.0094 11.0969C21.8352 11.7993 22.2482 12.7799 22.2482 14.0388C22.2482 14.5314 22.1648 15.0148 21.9979 15.4892C21.8311 15.9635 21.5975 16.3831 21.2972 16.748C22.0647 16.7662 22.707 17.0399 23.2242 17.569C23.7414 18.0981 24 18.8005 24 19.6762C24 20.4971 23.7414 21.2087 23.2242 21.8107C22.707 22.4128 22.0563 22.7138 21.2722 22.7138C20.755 22.7138 20.2961 22.5815 19.8957 22.317C19.4953 22.0525 19.17 21.683 18.9197 21.2087C18.6528 22.0296 18.2106 22.7001 17.5933 23.2201C16.976 23.74 16.2586 24 15.4411 24Z" fill="#9A0000"/>
</svg>
