<svg width="24" height="24" viewBox="0 0 24 24" fill="none" xmlns="http://www.w3.org/2000/svg">
<path d="M12 11.5942C10.35 11.5942 9 11.0531 7.95 9.97101C6.9 8.88889 6.375 7.49758 6.375 5.7971C6.375 4.09662 6.9 2.70531 7.95 1.62319C9 0.541063 10.35 0 12 0C13.65 0 15 0.541063 16.05 1.62319C17.1 2.70531 17.625 4.09662 17.625 5.7971C17.625 7.49758 17.1 8.88889 16.05 9.97101C15 11.0531 13.65 11.5942 12 11.5942ZM0 24V20.3671C0 19.3881 0.2375 18.5507 0.7125 17.8551C1.1875 17.1594 1.8 16.6312 2.55 16.2705C4.225 15.4976 5.83125 14.9179 7.36875 14.5314C8.90625 14.1449 10.45 13.9517 12 13.9517C13.55 13.9517 15.0875 14.1514 16.6125 14.5507C18.1375 14.9501 19.7375 15.5233 21.4125 16.2705C22.1875 16.6312 22.8125 17.1594 23.2875 17.8551C23.7625 18.5507 24 19.3881 24 20.3671V24H0Z" fill="#9A0000"/>
</svg>
