<svg width="24" height="24" viewBox="0 0 24 24" fill="none" xmlns="http://www.w3.org/2000/svg">
<path d="M0 24V22.3618H24V24H0ZM2.4 20.7235V14.9898C1.62 13.3333 1.08 11.9909 0.78 10.9625C0.48 9.93402 0.33 8.90102 0.33 7.86348C0.33 6.80774 0.475 5.69738 0.765 4.53242C1.055 3.36746 1.46 2.26621 1.98 1.22867C2.18 0.828214 2.445 0.523322 2.775 0.313993C3.105 0.104664 3.47 0 3.87 0C4.41 0 4.82 0.159272 5.1 0.477816C5.38 0.79636 5.52 1.27418 5.52 1.91126V5.48805C5.52 6.28896 5.69 7.04437 6.03 7.75427C6.37 8.46416 6.835 9.08305 7.425 9.61092C8.015 10.1388 8.7 10.5529 9.48 10.8532C10.26 11.1536 11.1 11.3038 12 11.3038C13.62 11.3038 15.03 11.413 16.23 11.6314C17.43 11.8498 18.43 12.1684 19.23 12.587C20.03 13.0057 20.625 13.5381 21.015 14.1843C21.405 14.8305 21.6 15.5904 21.6 16.4642V20.7235H2.4ZM4.2 19.0853H19.8V16.4642C19.8 15.8635 19.64 15.3447 19.32 14.9078C19 14.471 18.52 14.1069 17.88 13.8157C17.24 13.5245 16.43 13.306 15.45 13.1604C14.47 13.0148 13.32 12.942 12 12.942C10.86 12.942 9.785 12.7463 8.775 12.3549C7.765 11.9636 6.885 11.4312 6.135 10.7577C5.385 10.0842 4.79 9.29238 4.35 8.38225C3.91 7.47213 3.69 6.49829 3.69 5.46075V1.91126C3.23 2.73038 2.855 3.68146 2.565 4.7645C2.275 5.84755 2.13 6.88055 2.13 7.86348C2.13 8.79181 2.285 9.75199 2.595 10.744C2.905 11.7361 3.44 12.9966 4.2 14.5256V19.0853ZM12 9.80205C10.68 9.80205 9.55 9.37429 8.61 8.51877C7.67 7.66325 7.2 6.63481 7.2 5.43345C7.2 4.23208 7.67 3.20364 8.61 2.34812C9.55 1.49261 10.68 1.06485 12 1.06485C13.32 1.06485 14.45 1.49261 15.39 2.34812C16.33 3.20364 16.8 4.23208 16.8 5.43345C16.8 6.63481 16.33 7.66325 15.39 8.51877C14.45 9.37429 13.32 9.80205 12 9.80205ZM12 8.16382C12.84 8.16382 13.55 7.89989 14.13 7.37201C14.71 6.84414 15 6.19795 15 5.43345C15 4.66894 14.71 4.02275 14.13 3.49488C13.55 2.96701 12.84 2.70307 12 2.70307C11.16 2.70307 10.45 2.96701 9.87 3.49488C9.29 4.02275 9 4.66894 9 5.43345C9 6.19795 9.29 6.84414 9.87 7.37201C10.45 7.89989 11.16 8.16382 12 8.16382ZM7.5 20.7235V19.7133C7.5 18.5666 7.935 17.5836 8.805 16.7645C9.675 15.9454 10.74 15.5358 12 15.5358H16.5V17.1741H12C11.24 17.1741 10.6 17.4243 10.08 17.9249C9.56 18.4255 9.3 19.0216 9.3 19.7133V20.7235H7.5Z" fill="black"/>
</svg>
