<svg width="24" height="24" viewBox="0 0 24 24" fill="none" xmlns="http://www.w3.org/2000/svg">
<path d="M0 24V22.3618H24V24H0ZM2.4 20.7235V14.9898C1.62 13.3333 1.08 11.9909 0.78 10.9625C0.48 9.93402 0.33 8.90102 0.33 7.86348C0.33 6.80774 0.475 5.69738 0.765 4.53242C1.055 3.36746 1.46 2.26621 1.98 1.22867C2.18 0.828214 2.445 0.523322 2.775 0.313993C3.105 0.104664 3.47 0 3.87 0C4.41 0 4.82 0.159272 5.1 0.477816C5.38 0.796359 5.52 1.27418 5.52 1.91126V5.48805C5.52 6.28896 5.69 7.04437 6.03 7.75427C6.37 8.46416 6.835 9.08305 7.425 9.61092C8.015 10.1388 8.7 10.5529 9.48 10.8532C10.26 11.1536 11.1 11.3038 12 11.3038C13.62 11.3038 15.03 11.413 16.23 11.6314C17.43 11.8498 18.43 12.1684 19.23 12.587C20.03 13.0057 20.625 13.5381 21.015 14.1843C21.405 14.8305 21.6 15.5904 21.6 16.4642V20.7235H9.3V19.7133C9.3 19.0216 9.56 18.4255 10.08 17.9249C10.6 17.4243 11.24 17.1741 12 17.1741H16.5V15.5358H12C10.74 15.5358 9.675 15.9454 8.805 16.7645C7.935 17.5836 7.5 18.5666 7.5 19.7133V20.7235H2.4ZM12 9.80205C10.68 9.80205 9.55 9.37429 8.61 8.51877C7.67 7.66325 7.2 6.63481 7.2 5.43345C7.2 4.23208 7.67 3.20364 8.61 2.34812C9.55 1.49261 10.68 1.06485 12 1.06485C13.32 1.06485 14.45 1.49261 15.39 2.34812C16.33 3.20364 16.8 4.23208 16.8 5.43345C16.8 6.63481 16.33 7.66325 15.39 8.51877C14.45 9.37429 13.32 9.80205 12 9.80205Z" fill="#9A0000"/>
</svg>
