<svg width="30" height="24" viewBox="0 0 30 24" fill="none" xmlns="http://www.w3.org/2000/svg">
<path d="M2.25 24C1.65 24 1.125 23.7688 0.675 23.3063C0.225 22.8438 0 22.325 0 21.75V2.25C0 1.675 0.225 1.15625 0.675 0.69375C1.125 0.23125 1.65 0 2.25 0H12.7875L15.0375 2.25H27.75C28.325 2.25 28.8438 2.48125 29.3063 2.94375C29.7688 3.40625 30 3.925 30 4.5V21.75C30 22.325 29.7688 22.8438 29.3063 23.3063C28.8438 23.7688 28.325 24 27.75 24H2.25ZM6.375 11.25H23.625V9H6.375V11.25ZM6.375 17.25H17.625V15H6.375V17.25Z" fill="#9A0000"/>
</svg>
